<?xml version="1.0" encoding="UTF-8"?>
<svg version="1.1" xmlns="http://www.w3.org/2000/svg" width="1024" height="1024">
<path d="M0,0 L64,0 L64,1 L143,1 L143,432 L144,432 L144,428 L145,428 L145,425 L146,425 L146,421 L147,421 L147,418 L148,418 L148,415 L149,415 L149,412 L150,412 L150,409 L151,409 L151,406 L152,406 L152,404 L153,404 L153,401 L154,401 L154,399 L155,399 L155,396 L156,396 L156,394 L157,394 L157,392 L158,392 L158,390 L159,390 L159,388 L160,388 L160,385 L161,385 L161,383 L162,383 L162,381 L163,381 L163,380 L164,380 L164,378 L165,378 L165,376 L166,376 L166,374 L167,374 L167,372 L168,372 L168,370 L169,370 L169,369 L170,369 L170,367 L171,367 L171,366 L172,366 L172,364 L173,364 L173,362 L174,362 L174,361 L175,361 L175,359 L176,359 L176,358 L177,358 L177,356 L178,356 L178,355 L179,355 L179,354 L180,354 L180,352 L181,352 L181,351 L182,351 L182,349 L183,349 L183,348 L184,348 L184,347 L185,347 L185,345 L186,345 L186,344 L187,344 L187,343 L188,343 L188,342 L189,342 L189,340 L190,340 L190,339 L191,339 L191,338 L192,338 L192,337 L193,337 L193,336 L194,336 L194,335 L195,335 L195,333 L196,333 L196,332 L197,332 L197,331 L198,331 L198,330 L199,330 L199,329 L200,329 L200,328 L201,328 L201,327 L202,327 L202,326 L203,326 L203,325 L204,325 L204,324 L205,324 L205,323 L206,323 L206,322 L207,322 L207,321 L208,321 L208,320 L209,320 L209,319 L210,319 L210,318 L211,318 L211,317 L212,317 L212,316 L213,316 L213,315 L214,315 L214,314 L215,314 L215,313 L217,313 L217,312 L218,312 L218,311 L219,311 L219,310 L220,310 L220,309 L221,309 L221,308 L222,308 L222,307 L223,307 L223,306 L225,306 L225,305 L226,305 L226,304 L227,304 L227,303 L229,303 L229,302 L230,302 L230,301 L231,301 L231,300 L233,300 L233,299 L234,299 L234,298 L235,298 L235,297 L237,297 L237,296 L238,296 L238,295 L240,295 L240,294 L241,294 L241,293 L243,293 L243,292 L244,292 L244,291 L246,291 L246,290 L247,290 L247,289 L249,289 L249,288 L251,288 L251,287 L252,287 L252,286 L254,286 L254,285 L256,285 L256,284 L257,284 L257,283 L259,283 L259,282 L261,282 L261,281 L263,281 L263,280 L265,280 L265,279 L267,279 L267,278 L269,278 L269,277 L271,277 L271,276 L273,276 L273,275 L275,275 L275,274 L278,274 L278,273 L280,273 L280,272 L282,272 L282,271 L285,271 L285,270 L287,270 L287,269 L290,269 L290,268 L293,268 L293,267 L296,267 L296,266 L299,266 L299,265 L302,265 L302,264 L305,264 L305,263 L308,263 L308,262 L312,262 L312,261 L316,261 L316,260 L320,260 L320,259 L325,259 L325,258 L331,258 L331,257 L336,257 L336,256 L342,256 L342,255 L349,255 L349,254 L358,254 L358,253 L375,253 L375,252 L400,252 L400,253 L417,253 L417,254 L426,254 L426,255 L433,255 L433,256 L439,256 L439,257 L445,257 L445,258 L450,258 L450,259 L455,259 L455,260 L459,260 L459,261 L463,261 L463,262 L467,262 L467,263 L470,263 L470,264 L473,264 L473,265 L476,265 L476,266 L479,266 L479,267 L482,267 L482,268 L484,268 L484,269 L487,269 L487,270 L489,270 L489,271 L492,271 L492,272 L494,272 L494,273 L496,273 L496,274 L499,274 L499,275 L501,275 L501,276 L503,276 L503,277 L505,277 L505,278 L507,278 L507,279 L509,279 L509,280 L511,280 L511,281 L512,281 L512,282 L514,282 L514,283 L516,283 L516,284 L518,284 L518,285 L519,285 L519,286 L521,286 L521,287 L523,287 L523,288 L524,288 L524,289 L526,289 L526,290 L527,290 L527,291 L529,291 L529,292 L530,292 L530,293 L531,293 L531,294 L533,294 L533,295 L534,295 L534,296 L536,296 L536,297 L537,297 L537,298 L538,298 L538,299 L540,299 L540,300 L541,300 L541,301 L542,301 L542,302 L543,302 L543,303 L545,303 L545,304 L546,304 L546,305 L547,305 L547,306 L548,306 L548,307 L549,307 L549,308 L550,308 L550,309 L551,309 L551,310 L553,310 L553,311 L554,311 L554,312 L555,312 L555,313 L556,313 L556,314 L557,314 L557,315 L558,315 L558,316 L559,316 L559,317 L560,317 L560,318 L561,318 L561,319 L562,319 L562,320 L563,320 L563,321 L564,321 L564,322 L565,322 L565,323 L566,323 L566,324 L567,324 L567,326 L568,326 L568,327 L569,327 L569,328 L570,328 L570,329 L571,329 L571,330 L572,330 L572,331 L573,331 L573,332 L574,332 L574,334 L575,334 L575,335 L576,335 L576,336 L577,336 L577,337 L578,337 L578,339 L579,339 L579,340 L580,340 L580,341 L581,341 L581,343 L582,343 L582,344 L583,344 L583,345 L584,345 L584,347 L585,347 L585,348 L586,348 L586,350 L587,350 L587,351 L588,351 L588,353 L589,353 L589,354 L590,354 L590,356 L591,356 L591,357 L592,357 L592,359 L593,359 L593,360 L594,360 L594,362 L595,362 L595,364 L596,364 L596,366 L597,366 L597,367 L598,367 L598,369 L599,369 L599,371 L600,371 L600,373 L601,373 L601,375 L602,375 L602,377 L603,377 L603,379 L604,379 L604,380 L605,380 L605,383 L606,383 L606,385 L607,385 L607,387 L608,387 L608,389 L609,389 L609,392 L610,392 L610,394 L611,394 L611,397 L612,397 L612,399 L613,399 L613,402 L614,402 L614,404 L615,404 L615,407 L616,407 L616,410 L617,410 L617,413 L618,413 L618,417 L619,417 L619,420 L620,420 L620,424 L621,424 L621,427 L622,427 L622,432 L623,432 L623,436 L624,436 L624,441 L625,441 L625,446 L626,446 L626,451 L627,451 L627,459 L628,459 L628,467 L629,467 L629,477 L630,477 L630,499 L631,499 L631,556 L283,556 L283,558 L284,558 L284,564 L285,564 L285,568 L286,568 L286,572 L287,572 L287,575 L288,575 L288,578 L289,578 L289,580 L290,580 L290,583 L291,583 L291,585 L292,585 L292,587 L293,587 L293,589 L294,589 L294,591 L295,591 L295,593 L296,593 L296,594 L297,594 L297,596 L298,596 L298,597 L299,597 L299,599 L300,599 L300,600 L301,600 L301,601 L302,601 L302,602 L303,602 L303,604 L304,604 L304,605 L305,605 L305,606 L306,606 L306,607 L307,607 L307,608 L308,608 L308,609 L309,609 L309,610 L310,610 L310,611 L311,611 L311,612 L312,612 L312,613 L313,613 L313,614 L314,614 L314,615 L316,615 L316,616 L317,616 L317,617 L318,617 L318,618 L320,618 L320,619 L321,619 L321,620 L322,620 L322,621 L324,621 L324,622 L325,622 L325,623 L327,623 L327,624 L329,624 L329,625 L330,625 L330,626 L332,626 L332,627 L334,627 L334,628 L336,628 L336,629 L338,629 L338,630 L340,630 L340,631 L343,631 L343,632 L345,632 L345,633 L348,633 L348,634 L351,634 L351,635 L354,635 L354,636 L358,636 L358,637 L363,637 L363,638 L368,638 L368,639 L376,639 L376,640 L405,640 L405,639 L413,639 L413,638 L422,638 L422,637 L427,637 L427,636 L432,636 L432,635 L437,635 L437,634 L441,634 L441,633 L444,633 L444,632 L448,632 L448,631 L452,631 L452,630 L455,630 L455,629 L458,629 L458,628 L461,628 L461,627 L463,627 L463,626 L466,626 L466,625 L469,625 L469,624 L471,624 L471,623 L473,623 L473,622 L475,622 L475,621 L478,621 L478,620 L480,620 L480,619 L482,619 L482,618 L484,618 L484,617 L486,617 L486,616 L488,616 L488,615 L489,615 L489,614 L491,614 L491,613 L493,613 L493,612 L495,612 L495,611 L497,611 L497,610 L498,610 L498,609 L500,609 L500,608 L501,608 L501,607 L503,607 L503,606 L504,606 L504,605 L506,605 L506,604 L507,604 L507,603 L509,603 L509,602 L510,602 L510,601 L512,601 L512,600 L515,600 L515,601 L516,601 L516,602 L517,602 L517,603 L518,603 L518,604 L519,604 L519,605 L520,605 L520,606 L521,606 L521,607 L522,607 L522,608 L523,608 L523,609 L524,609 L524,610 L525,610 L525,611 L526,611 L526,612 L527,612 L527,613 L528,613 L528,614 L529,614 L529,615 L530,615 L530,616 L531,616 L531,617 L532,617 L532,618 L533,618 L533,619 L534,619 L534,620 L535,620 L535,621 L536,621 L536,622 L537,622 L537,623 L538,623 L538,624 L539,624 L539,625 L540,625 L540,626 L541,626 L541,627 L542,627 L542,628 L543,628 L543,629 L544,629 L544,630 L545,630 L545,631 L546,631 L546,632 L547,632 L547,633 L548,633 L548,634 L549,634 L549,635 L550,635 L550,636 L551,636 L551,637 L552,637 L552,638 L553,638 L553,639 L554,639 L554,640 L555,640 L555,641 L556,641 L556,642 L557,642 L557,643 L558,643 L558,644 L559,644 L559,645 L560,645 L560,646 L561,646 L561,647 L562,647 L562,648 L563,648 L563,649 L564,649 L564,650 L565,650 L565,651 L566,651 L566,652 L567,652 L567,653 L568,653 L568,654 L569,654 L569,655 L570,655 L570,656 L571,656 L571,657 L572,657 L572,658 L573,658 L573,659 L574,659 L574,660 L575,660 L575,661 L576,661 L576,662 L577,662 L577,663 L578,663 L578,664 L579,664 L579,665 L580,665 L580,666 L581,666 L581,667 L582,667 L582,668 L583,668 L583,669 L584,669 L584,670 L585,670 L585,671 L586,671 L586,672 L587,672 L587,673 L588,673 L588,674 L589,674 L589,675 L590,675 L590,676 L591,676 L591,677 L592,677 L592,678 L593,678 L593,679 L594,679 L594,680 L595,680 L595,683 L594,683 L594,685 L593,685 L593,686 L592,686 L592,687 L591,687 L591,688 L590,688 L590,690 L589,690 L589,691 L588,691 L588,692 L587,692 L587,693 L586,693 L586,694 L585,694 L585,695 L584,695 L584,696 L583,696 L583,697 L582,697 L582,698 L581,698 L581,699 L580,699 L580,701 L578,701 L578,702 L577,702 L577,703 L576,703 L576,704 L575,704 L575,705 L574,705 L574,706 L573,706 L573,707 L572,707 L572,708 L571,708 L571,709 L569,709 L569,710 L568,710 L568,711 L567,711 L567,712 L565,712 L565,713 L564,713 L564,714 L563,714 L563,715 L562,715 L562,716 L560,716 L560,717 L558,717 L558,718 L557,718 L557,719 L555,719 L555,720 L554,720 L554,721 L552,721 L552,722 L551,722 L551,723 L549,723 L549,724 L547,724 L547,725 L546,725 L546,726 L544,726 L544,727 L542,727 L542,728 L540,728 L540,729 L538,729 L538,730 L536,730 L536,731 L534,731 L534,732 L532,732 L532,733 L530,733 L530,734 L528,734 L528,735 L525,735 L525,736 L522,736 L522,737 L520,737 L520,738 L517,738 L517,739 L515,739 L515,740 L512,740 L512,741 L509,741 L509,742 L506,742 L506,743 L503,743 L503,744 L499,744 L499,745 L495,745 L495,746 L492,746 L492,747 L488,747 L488,748 L484,748 L484,749 L479,749 L479,750 L474,750 L474,751 L469,751 L469,752 L463,752 L463,753 L457,753 L457,754 L449,754 L449,755 L441,755 L441,756 L429,756 L429,757 L412,757 L412,758 L370,758 L370,757 L356,757 L356,756 L347,756 L347,755 L340,755 L340,754 L334,754 L334,753 L328,753 L328,752 L323,752 L323,751 L319,751 L319,750 L315,750 L315,749 L311,749 L311,748 L308,748 L308,747 L304,747 L304,746 L301,746 L301,745 L298,745 L298,744 L295,744 L295,743 L292,743 L292,742 L289,742 L289,741 L287,741 L287,740 L284,740 L284,739 L282,739 L282,738 L279,738 L279,737 L277,737 L277,736 L275,736 L275,735 L273,735 L273,734 L270,734 L270,733 L268,733 L268,732 L266,732 L266,731 L264,731 L264,730 L262,730 L262,729 L261,729 L261,728 L259,728 L259,727 L257,727 L257,726 L255,726 L255,725 L253,725 L253,724 L252,724 L252,723 L250,723 L250,722 L248,722 L248,721 L247,721 L247,720 L245,720 L245,719 L244,719 L244,718 L242,718 L242,717 L241,717 L241,716 L239,716 L239,715 L238,715 L238,714 L236,714 L236,713 L235,713 L235,712 L233,712 L233,711 L232,711 L232,710 L231,710 L231,709 L230,709 L230,708 L228,708 L228,707 L227,707 L227,706 L226,706 L226,705 L224,705 L224,704 L223,704 L223,703 L222,703 L222,702 L221,702 L221,701 L220,701 L220,700 L219,700 L219,699 L217,699 L217,698 L216,698 L216,697 L215,697 L215,696 L214,696 L214,695 L213,695 L213,694 L212,694 L212,693 L211,693 L211,692 L210,692 L210,691 L209,691 L209,690 L208,690 L208,689 L207,689 L207,688 L206,688 L206,687 L205,687 L205,686 L204,686 L204,685 L203,685 L203,684 L202,684 L202,683 L201,683 L201,682 L200,682 L200,681 L199,681 L199,680 L198,680 L198,679 L197,679 L197,678 L196,678 L196,677 L195,677 L195,676 L194,676 L194,674 L193,674 L193,673 L192,673 L192,672 L191,672 L191,671 L190,671 L190,670 L189,670 L189,668 L188,668 L188,667 L187,667 L187,666 L186,666 L186,665 L185,665 L185,663 L184,663 L184,662 L183,662 L183,661 L182,661 L182,659 L181,659 L181,658 L180,658 L180,657 L179,657 L179,655 L178,655 L178,654 L177,654 L177,652 L176,652 L176,651 L175,651 L175,649 L174,649 L174,648 L173,648 L173,646 L172,646 L172,645 L171,645 L171,643 L170,643 L170,641 L169,641 L169,640 L168,640 L168,638 L167,638 L167,636 L166,636 L166,634 L165,634 L165,632 L164,632 L164,631 L163,631 L163,629 L162,629 L162,627 L161,627 L161,625 L160,625 L160,622 L159,622 L159,620 L158,620 L158,618 L157,618 L157,616 L156,616 L156,614 L155,614 L155,611 L154,611 L154,609 L153,609 L153,606 L152,606 L152,604 L151,604 L151,601 L150,601 L150,598 L149,598 L149,595 L148,595 L148,592 L147,592 L147,589 L146,589 L146,586 L145,586 L145,582 L144,582 L144,578 L143,578 L143,758 L0,758 L0,719 L-1,719 L-1,720 L-2,720 L-2,721 L-4,721 L-4,722 L-5,722 L-5,723 L-7,723 L-7,724 L-8,724 L-8,725 L-10,725 L-10,726 L-11,726 L-11,727 L-13,727 L-13,728 L-15,728 L-15,729 L-16,729 L-16,730 L-18,730 L-18,731 L-20,731 L-20,732 L-21,732 L-21,733 L-23,733 L-23,734 L-25,734 L-25,735 L-27,735 L-27,736 L-29,736 L-29,737 L-31,737 L-31,738 L-33,738 L-33,739 L-35,739 L-35,740 L-37,740 L-37,741 L-39,741 L-39,742 L-41,742 L-41,743 L-43,743 L-43,744 L-46,744 L-46,745 L-48,745 L-48,746 L-51,746 L-51,747 L-53,747 L-53,748 L-56,748 L-56,749 L-59,749 L-59,750 L-62,750 L-62,751 L-65,751 L-65,752 L-69,752 L-69,753 L-73,753 L-73,754 L-77,754 L-77,755 L-82,755 L-82,756 L-89,756 L-89,757 L-96,757 L-96,758 L-129,758 L-129,757 L-143,757 L-143,756 L-152,756 L-152,755 L-158,755 L-158,754 L-165,754 L-165,753 L-169,753 L-169,752 L-174,752 L-174,751 L-179,751 L-179,750 L-183,750 L-183,749 L-187,749 L-187,748 L-191,748 L-191,747 L-194,747 L-194,746 L-197,746 L-197,745 L-200,745 L-200,744 L-203,744 L-203,743 L-206,743 L-206,742 L-208,742 L-208,741 L-211,741 L-211,740 L-214,740 L-214,739 L-216,739 L-216,738 L-218,738 L-218,737 L-221,737 L-221,736 L-223,736 L-223,735 L-225,735 L-225,734 L-227,734 L-227,733 L-229,733 L-229,732 L-231,732 L-231,731 L-233,731 L-233,730 L-235,730 L-235,729 L-237,729 L-237,728 L-239,728 L-239,727 L-240,727 L-240,726 L-242,726 L-242,725 L-244,725 L-244,724 L-245,724 L-245,723 L-247,723 L-247,722 L-249,722 L-249,721 L-250,721 L-250,720 L-252,720 L-252,719 L-253,719 L-253,718 L-255,718 L-255,717 L-256,717 L-256,716 L-258,716 L-258,715 L-259,715 L-259,714 L-260,714 L-260,713 L-262,713 L-262,712 L-263,712 L-263,711 L-264,711 L-264,710 L-266,710 L-266,709 L-267,709 L-267,708 L-268,708 L-268,707 L-269,707 L-269,706 L-271,706 L-271,705 L-272,705 L-272,704 L-273,704 L-273,703 L-274,703 L-274,702 L-275,702 L-275,701 L-277,701 L-277,700 L-278,700 L-278,699 L-279,699 L-279,698 L-280,698 L-280,697 L-281,697 L-281,696 L-282,696 L-282,695 L-283,695 L-283,694 L-284,694 L-284,693 L-285,693 L-285,692 L-286,692 L-286,691 L-287,691 L-287,690 L-288,690 L-288,689 L-289,689 L-289,688 L-290,688 L-290,687 L-291,687 L-291,686 L-292,686 L-292,685 L-293,685 L-293,684 L-294,684 L-294,683 L-295,683 L-295,681 L-296,681 L-296,680 L-297,680 L-297,679 L-298,679 L-298,678 L-299,678 L-299,677 L-300,677 L-300,676 L-301,676 L-301,674 L-302,674 L-302,673 L-303,673 L-303,672 L-304,672 L-304,671 L-305,671 L-305,669 L-306,669 L-306,668 L-307,668 L-307,667 L-308,667 L-308,666 L-309,666 L-309,664 L-310,664 L-310,663 L-311,663 L-311,662 L-312,662 L-312,660 L-313,660 L-313,659 L-314,659 L-314,658 L-315,658 L-315,656 L-316,656 L-316,655 L-317,655 L-317,653 L-318,653 L-318,652 L-319,652 L-319,650 L-320,650 L-320,649 L-321,649 L-321,647 L-322,647 L-322,646 L-323,646 L-323,644 L-324,644 L-324,643 L-325,643 L-325,641 L-326,641 L-326,639 L-327,639 L-327,638 L-328,638 L-328,636 L-329,636 L-329,634 L-330,634 L-330,633 L-331,633 L-331,631 L-332,631 L-332,629 L-333,629 L-333,627 L-334,627 L-334,625 L-335,625 L-335,623 L-336,623 L-336,621 L-337,621 L-337,619 L-338,619 L-338,617 L-339,617 L-339,615 L-340,615 L-340,613 L-341,613 L-341,611 L-342,611 L-342,608 L-343,608 L-343,606 L-344,606 L-344,603 L-345,603 L-345,601 L-346,601 L-346,598 L-347,598 L-347,595 L-348,595 L-348,593 L-349,593 L-349,590 L-350,590 L-350,587 L-351,587 L-351,583 L-352,583 L-352,580 L-353,580 L-353,577 L-354,577 L-354,573 L-355,573 L-355,569 L-356,569 L-356,564 L-357,564 L-357,559 L-358,559 L-358,554 L-359,554 L-359,548 L-360,548 L-360,541 L-361,541 L-361,532 L-362,532 L-362,517 L-363,517 L-363,493 L-362,493 L-362,478 L-361,478 L-361,469 L-360,469 L-360,462 L-359,462 L-359,456 L-358,456 L-358,451 L-357,451 L-357,446 L-356,446 L-356,441 L-355,441 L-355,437 L-354,437 L-354,433 L-353,433 L-353,430 L-352,430 L-352,427 L-351,427 L-351,423 L-350,423 L-350,420 L-349,420 L-349,417 L-348,417 L-348,415 L-347,415 L-347,412 L-346,412 L-346,409 L-345,409 L-345,407 L-344,407 L-344,404 L-343,404 L-343,402 L-342,402 L-342,400 L-341,400 L-341,397 L-340,397 L-340,395 L-339,395 L-339,393 L-338,393 L-338,391 L-337,391 L-337,389 L-336,389 L-336,387 L-335,387 L-335,385 L-334,385 L-334,383 L-333,383 L-333,381 L-332,381 L-332,379 L-331,379 L-331,377 L-330,377 L-330,376 L-329,376 L-329,374 L-328,374 L-328,372 L-327,372 L-327,371 L-326,371 L-326,369 L-325,369 L-325,367 L-324,367 L-324,366 L-323,366 L-323,364 L-322,364 L-322,363 L-321,363 L-321,361 L-320,361 L-320,360 L-319,360 L-319,358 L-318,358 L-318,357 L-317,357 L-317,355 L-316,355 L-316,354 L-315,354 L-315,352 L-314,352 L-314,351 L-313,351 L-313,350 L-312,350 L-312,348 L-311,348 L-311,347 L-310,347 L-310,346 L-309,346 L-309,344 L-308,344 L-308,343 L-307,343 L-307,342 L-306,342 L-306,341 L-305,341 L-305,339 L-304,339 L-304,338 L-303,338 L-303,337 L-302,337 L-302,336 L-301,336 L-301,335 L-300,335 L-300,333 L-299,333 L-299,332 L-298,332 L-298,331 L-297,331 L-297,330 L-296,330 L-296,329 L-295,329 L-295,328 L-294,328 L-294,327 L-293,327 L-293,326 L-292,326 L-292,324 L-291,324 L-291,323 L-290,323 L-290,322 L-289,322 L-289,321 L-288,321 L-288,320 L-287,320 L-287,319 L-286,319 L-286,318 L-285,318 L-285,317 L-284,317 L-284,316 L-283,316 L-283,315 L-282,315 L-282,314 L-281,314 L-281,313 L-279,313 L-279,312 L-278,312 L-278,311 L-277,311 L-277,310 L-276,310 L-276,309 L-275,309 L-275,308 L-274,308 L-274,307 L-273,307 L-273,306 L-271,306 L-271,305 L-270,305 L-270,304 L-269,304 L-269,303 L-268,303 L-268,302 L-267,302 L-267,301 L-265,301 L-265,300 L-264,300 L-264,299 L-263,299 L-263,298 L-261,298 L-261,297 L-260,297 L-260,296 L-259,296 L-259,295 L-257,295 L-257,294 L-256,294 L-256,293 L-254,293 L-254,292 L-253,292 L-253,291 L-251,291 L-251,290 L-250,290 L-250,289 L-248,289 L-248,288 L-247,288 L-247,287 L-245,287 L-245,286 L-243,286 L-243,285 L-241,285 L-241,284 L-240,284 L-240,283 L-238,283 L-238,282 L-236,282 L-236,281 L-234,281 L-234,280 L-232,280 L-232,279 L-231,279 L-231,278 L-229,278 L-229,277 L-227,277 L-227,276 L-224,276 L-224,275 L-222,275 L-222,274 L-220,274 L-220,273 L-218,273 L-218,272 L-216,272 L-216,271 L-213,271 L-213,270 L-210,270 L-210,269 L-208,269 L-208,268 L-205,268 L-205,267 L-202,267 L-202,266 L-199,266 L-199,265 L-196,265 L-196,264 L-193,264 L-193,263 L-189,263 L-189,262 L-186,262 L-186,261 L-182,261 L-182,260 L-178,260 L-178,259 L-173,259 L-173,258 L-168,258 L-168,257 L-162,257 L-162,256 L-155,256 L-155,255 L-147,255 L-147,254 L-139,254 L-139,253 L-123,253 L-123,252 L-107,252 L-107,253 L-96,253 L-96,254 L-88,254 L-88,255 L-82,255 L-82,256 L-75,256 L-75,257 L-71,257 L-71,258 L-66,258 L-66,259 L-62,259 L-62,260 L-58,260 L-58,261 L-54,261 L-54,262 L-51,262 L-51,263 L-48,263 L-48,264 L-45,264 L-45,265 L-43,265 L-43,266 L-40,266 L-40,267 L-38,267 L-38,268 L-35,268 L-35,269 L-33,269 L-33,270 L-30,270 L-30,271 L-29,271 L-29,272 L-27,272 L-27,273 L-25,273 L-25,274 L-23,274 L-23,275 L-21,275 L-21,276 L-19,276 L-19,277 L-18,277 L-18,278 L-16,278 L-16,279 L-15,279 L-15,280 L-13,280 L-13,281 L-12,281 L-12,282 L-11,282 L-11,283 L-9,283 L-9,284 L-8,284 L-8,285 L-7,285 L-7,286 L-6,286 L-6,287 L-4,287 L-4,288 L-3,288 L-3,289 L-2,289 L-2,290 L-1,290 L-1,291 L0,291 Z M376,370 L376,371 L369,371 L369,372 L363,372 L363,373 L359,373 L359,374 L355,374 L355,375 L351,375 L351,376 L348,376 L348,377 L346,377 L346,378 L343,378 L343,379 L341,379 L341,380 L339,380 L339,381 L336,381 L336,382 L334,382 L334,383 L332,383 L332,384 L331,384 L331,385 L329,385 L329,386 L327,386 L327,387 L325,387 L325,388 L324,388 L324,389 L323,389 L323,390 L321,390 L321,391 L320,391 L320,392 L318,392 L318,393 L317,393 L317,394 L316,394 L316,395 L315,395 L315,396 L314,396 L314,397 L312,397 L312,398 L311,398 L311,399 L310,399 L310,400 L309,400 L309,401 L308,401 L308,402 L307,402 L307,403 L306,403 L306,404 L305,404 L305,406 L304,406 L304,407 L303,407 L303,408 L302,408 L302,410 L301,410 L301,411 L300,411 L300,412 L299,412 L299,414 L298,414 L298,416 L297,416 L297,418 L296,418 L296,420 L295,420 L295,422 L294,422 L294,425 L293,425 L293,427 L292,427 L292,430 L291,430 L291,434 L290,434 L290,439 L289,439 L289,445 L288,445 L288,454 L487,454 L487,442 L486,442 L486,436 L485,436 L485,432 L484,432 L484,429 L483,429 L483,426 L482,426 L482,423 L481,423 L481,421 L480,421 L480,419 L479,419 L479,417 L478,417 L478,415 L477,415 L477,413 L476,413 L476,412 L475,412 L475,410 L474,410 L474,409 L473,409 L473,408 L472,408 L472,406 L471,406 L471,405 L470,405 L470,404 L469,404 L469,403 L468,403 L468,402 L467,402 L467,401 L466,401 L466,400 L465,400 L465,399 L464,399 L464,398 L463,398 L463,397 L462,397 L462,396 L461,396 L461,395 L460,395 L460,394 L458,394 L458,393 L457,393 L457,392 L456,392 L456,391 L454,391 L454,390 L453,390 L453,389 L451,389 L451,388 L450,388 L450,387 L448,387 L448,386 L447,386 L447,385 L445,385 L445,384 L443,384 L443,383 L441,383 L441,382 L439,382 L439,381 L437,381 L437,380 L435,380 L435,379 L433,379 L433,378 L430,378 L430,377 L427,377 L427,376 L424,376 L424,375 L421,375 L421,374 L417,374 L417,373 L412,373 L412,372 L407,372 L407,371 L399,371 L399,370 Z M-115,371 L-115,372 L-122,372 L-122,373 L-127,373 L-127,374 L-133,374 L-133,375 L-137,375 L-137,376 L-141,376 L-141,377 L-145,377 L-145,378 L-148,378 L-148,379 L-151,379 L-151,380 L-154,380 L-154,381 L-157,381 L-157,382 L-159,382 L-159,383 L-162,383 L-162,384 L-164,384 L-164,385 L-166,385 L-166,386 L-169,386 L-169,387 L-170,387 L-170,388 L-172,388 L-172,389 L-174,389 L-174,390 L-176,390 L-176,391 L-178,391 L-178,392 L-180,392 L-180,393 L-181,393 L-181,394 L-183,394 L-183,395 L-184,395 L-184,396 L-186,396 L-186,397 L-187,397 L-187,398 L-189,398 L-189,399 L-190,399 L-190,400 L-191,400 L-191,401 L-193,401 L-193,402 L-194,402 L-194,403 L-195,403 L-195,404 L-196,404 L-196,405 L-197,405 L-197,406 L-198,406 L-198,407 L-199,407 L-199,408 L-200,408 L-200,409 L-201,409 L-201,410 L-202,410 L-202,411 L-203,411 L-203,412 L-204,412 L-204,413 L-205,413 L-205,414 L-206,414 L-206,415 L-207,415 L-207,416 L-208,416 L-208,417 L-209,417 L-209,418 L-210,418 L-210,420 L-211,420 L-211,421 L-212,421 L-212,422 L-213,422 L-213,423 L-214,423 L-214,425 L-215,425 L-215,427 L-216,427 L-216,428 L-217,428 L-217,430 L-218,430 L-218,431 L-219,431 L-219,433 L-220,433 L-220,434 L-221,434 L-221,436 L-222,436 L-222,438 L-223,438 L-223,440 L-224,440 L-224,442 L-225,442 L-225,444 L-226,444 L-226,446 L-227,446 L-227,449 L-228,449 L-228,451 L-229,451 L-229,453 L-230,453 L-230,456 L-231,456 L-231,459 L-232,459 L-232,462 L-233,462 L-233,465 L-234,465 L-234,468 L-235,468 L-235,473 L-236,473 L-236,477 L-237,477 L-237,481 L-238,481 L-238,487 L-239,487 L-239,493 L-240,493 L-240,500 L-239,500 L-239,514 L-238,514 L-238,521 L-237,521 L-237,528 L-236,528 L-236,533 L-235,533 L-235,538 L-234,538 L-234,543 L-233,543 L-233,546 L-232,546 L-232,549 L-231,549 L-231,553 L-230,553 L-230,556 L-229,556 L-229,559 L-228,559 L-228,561 L-227,561 L-227,564 L-226,564 L-226,566 L-225,566 L-225,569 L-224,569 L-224,571 L-223,571 L-223,573 L-222,573 L-222,575 L-221,575 L-221,577 L-220,577 L-220,579 L-219,579 L-219,581 L-218,581 L-218,582 L-217,582 L-217,584 L-216,584 L-216,585 L-215,585 L-215,587 L-214,587 L-214,588 L-213,588 L-213,590 L-212,590 L-212,591 L-211,591 L-211,593 L-210,593 L-210,594 L-209,594 L-209,595 L-208,595 L-208,596 L-207,596 L-207,597 L-206,597 L-206,599 L-205,599 L-205,600 L-204,600 L-204,601 L-203,601 L-203,602 L-202,602 L-202,603 L-201,603 L-201,604 L-200,604 L-200,605 L-199,605 L-199,606 L-198,606 L-198,607 L-197,607 L-197,608 L-196,608 L-196,609 L-195,609 L-195,610 L-193,610 L-193,611 L-192,611 L-192,612 L-191,612 L-191,613 L-189,613 L-189,614 L-188,614 L-188,615 L-187,615 L-187,616 L-186,616 L-186,617 L-184,617 L-184,618 L-183,618 L-183,619 L-181,619 L-181,620 L-179,620 L-179,621 L-177,621 L-177,622 L-176,622 L-176,623 L-174,623 L-174,624 L-172,624 L-172,625 L-170,625 L-170,626 L-167,626 L-167,627 L-165,627 L-165,628 L-163,628 L-163,629 L-161,629 L-161,630 L-158,630 L-158,631 L-155,631 L-155,632 L-152,632 L-152,633 L-149,633 L-149,634 L-144,634 L-144,635 L-140,635 L-140,636 L-136,636 L-136,637 L-130,637 L-130,638 L-123,638 L-123,639 L-113,639 L-113,640 L-101,640 L-101,639 L-96,639 L-96,638 L-92,638 L-92,637 L-87,637 L-87,636 L-83,636 L-83,635 L-80,635 L-80,634 L-76,634 L-76,633 L-73,633 L-73,632 L-70,632 L-70,631 L-68,631 L-68,630 L-65,630 L-65,629 L-62,629 L-62,628 L-60,628 L-60,627 L-58,627 L-58,626 L-56,626 L-56,625 L-54,625 L-54,624 L-52,624 L-52,623 L-50,623 L-50,622 L-48,622 L-48,621 L-46,621 L-46,620 L-45,620 L-45,619 L-43,619 L-43,618 L-42,618 L-42,617 L-40,617 L-40,616 L-38,616 L-38,615 L-37,615 L-37,614 L-36,614 L-36,613 L-35,613 L-35,612 L-33,612 L-33,611 L-32,611 L-32,610 L-31,610 L-31,609 L-30,609 L-30,608 L-29,608 L-29,607 L-28,607 L-28,606 L-27,606 L-27,605 L-26,605 L-26,604 L-25,604 L-25,603 L-24,603 L-24,602 L-23,602 L-23,601 L-22,601 L-22,600 L-21,600 L-21,599 L-20,599 L-20,598 L-19,598 L-19,596 L-18,596 L-18,595 L-17,595 L-17,593 L-16,593 L-16,592 L-15,592 L-15,591 L-14,591 L-14,589 L-13,589 L-13,587 L-12,587 L-12,586 L-11,586 L-11,584 L-10,584 L-10,582 L-9,582 L-9,580 L-8,580 L-8,577 L-7,577 L-7,575 L-6,575 L-6,572 L-5,572 L-5,569 L-4,569 L-4,566 L-3,566 L-3,562 L-2,562 L-2,559 L-1,559 L-1,553 L0,553 L0,466 L-1,466 L-1,460 L-2,460 L-2,455 L-3,455 L-3,451 L-4,451 L-4,447 L-5,447 L-5,444 L-6,444 L-6,441 L-7,441 L-7,438 L-8,438 L-8,436 L-9,436 L-9,434 L-10,434 L-10,431 L-11,431 L-11,429 L-12,429 L-12,428 L-13,428 L-13,426 L-14,426 L-14,424 L-15,424 L-15,422 L-16,422 L-16,421 L-17,421 L-17,419 L-18,419 L-18,418 L-19,418 L-19,416 L-20,416 L-20,415 L-21,415 L-21,413 L-22,413 L-22,412 L-23,412 L-23,411 L-24,411 L-24,410 L-25,410 L-25,409 L-26,409 L-26,408 L-27,408 L-27,407 L-28,407 L-28,406 L-29,406 L-29,405 L-30,405 L-30,403 L-31,403 L-31,402 L-33,402 L-33,401 L-34,401 L-34,400 L-35,400 L-35,399 L-36,399 L-36,398 L-37,398 L-37,397 L-39,397 L-39,396 L-40,396 L-40,395 L-41,395 L-41,394 L-43,394 L-43,393 L-44,393 L-44,392 L-46,392 L-46,391 L-47,391 L-47,390 L-49,390 L-49,389 L-51,389 L-51,388 L-52,388 L-52,387 L-54,387 L-54,386 L-56,386 L-56,385 L-58,385 L-58,384 L-60,384 L-60,383 L-62,383 L-62,382 L-65,382 L-65,381 L-67,381 L-67,380 L-70,380 L-70,379 L-72,379 L-72,378 L-76,378 L-76,377 L-79,377 L-79,376 L-82,376 L-82,375 L-86,375 L-86,374 L-90,374 L-90,373 L-94,373 L-94,372 L-100,372 L-100,371 Z " fill="#FEC006" transform="translate(377,146)"/>
</svg>
